<svg width="170" height="128" viewBox="0 0 170 128" fill="none" xmlns="http://www.w3.org/2000/svg">
<path d="M71.4564 122.843C71.48 121.961 71.4983 121.074 71.509 120.182L71.5208 118.843C71.5133 118.397 71.4929 117.953 71.479 117.507L71.3631 114.818C71.288 113.926 71.1969 113.035 71.1121 112.135C70.7141 108.561 70.048 104.976 69.0075 101.552C68.7436 100.701 68.4379 99.8783 68.1504 99.0351C68.0764 98.827 68.0066 98.6125 67.9272 98.4076L67.6784 97.8047L67.1753 96.5958C66.8556 95.7666 66.4587 95.0286 66.0779 94.2616C65.8859 93.8818 65.6971 93.4946 65.4987 93.1202L64.8744 92.0411L64.2447 90.9598C64.0344 90.5994 63.8006 90.2818 63.5764 89.9429C63.1216 89.2821 62.6785 88.5838 62.1937 87.982L61.4771 87.0476C61.239 86.7344 60.9987 86.4212 60.7487 86.1401C60.2542 85.562 59.7554 84.9795 59.2491 84.4249C57.2185 82.2183 55.0816 80.3583 52.9362 78.6516C50.7865 76.9557 48.6143 75.4228 46.4582 73.9961C42.1406 71.1266 37.8776 68.5317 33.7617 65.7105C31.7075 64.2946 29.6747 62.8529 27.7052 61.2856C26.7033 60.539 25.7497 59.6895 24.7682 58.8989C24.2833 58.4913 23.8124 58.0557 23.3329 57.6352C22.8566 57.2094 22.3707 56.8028 21.9094 56.3469L20.5052 55.0157C20.0354 54.5759 19.6052 54.1007 19.1515 53.6448C18.2354 52.748 17.4019 51.7461 16.533 50.7796C14.8639 48.7672 13.2956 46.6154 11.9161 44.2651C9.1453 39.5881 7.23699 33.966 6.83258 27.6468L6.765 26.4593C6.7532 26.0613 6.75426 25.6633 6.74783 25.2611L6.74141 24.6571L6.75962 24.0543C6.77678 23.652 6.77252 23.2433 6.79718 22.8378C6.87012 21.2095 7.05999 19.58 7.29921 17.9399C7.55237 16.3061 7.87846 14.6703 8.29145 13.0644C8.70122 11.4543 9.17643 9.86243 9.75355 8.31559C8.83639 9.45158 8.03723 10.8 7.28848 12.217C6.55154 13.648 5.88432 15.182 5.31471 16.8146C4.73867 18.443 4.25488 20.1657 3.873 21.9625C3.77217 22.4098 3.69815 22.8679 3.61448 23.3259L3.49327 24.0146L3.39779 24.7129C3.33665 25.1806 3.26907 25.6483 3.21543 26.1214L3.08995 27.5502C2.79281 31.3819 3.06312 35.3659 3.78076 39.1429L3.91056 39.8563L4.07147 40.5492C4.17767 41.0126 4.28709 41.4761 4.40187 41.9373C4.50592 42.4072 4.64966 42.8427 4.78053 43.2911L5.18386 44.6309C5.31044 45.0879 5.48101 45.4965 5.63011 45.931L6.09565 47.2182C6.24476 47.657 6.42605 48.0528 6.59875 48.4626L7.12652 49.6833C8.57252 52.8907 10.2803 55.7495 12.0953 58.3776C13.0307 59.623 13.9489 60.9328 14.939 62.0548C15.4282 62.6276 15.9119 63.238 16.4065 63.7786L17.8986 65.3855C18.3931 65.9315 18.9026 66.4346 19.4154 66.9345C19.9281 67.4333 20.4355 67.9493 20.9537 68.432C21.9953 69.3803 23.0368 70.3436 24.102 71.2146C24.633 71.6566 25.1629 72.1103 25.7004 72.5265L27.3137 73.7773C27.8501 74.2042 28.3982 74.5689 28.9399 74.968C29.4838 75.3563 30.0266 75.7564 30.5726 76.1211C34.9406 79.1236 39.3752 81.608 43.6864 84.0484C45.8468 85.2702 47.9643 86.4888 50.0292 87.7889C52.091 89.0891 54.1034 90.4578 56.0021 92.0218C56.4751 92.4144 56.9299 92.8382 57.4041 93.234C57.6433 93.4281 57.8664 93.648 58.0895 93.8669L58.7643 94.5212C59.2277 94.9406 59.6364 95.4384 60.0708 95.9072C60.2821 96.1485 60.5074 96.3738 60.7134 96.6226L61.328 97.3821L61.9481 98.1437C62.1454 98.4108 62.3331 98.6908 62.5273 98.9643C62.9124 99.5157 63.3125 100.055 63.6644 100.657L64.2125 101.541L64.4893 101.985C64.5783 102.136 64.6577 102.299 64.7424 102.456C65.0739 103.091 65.4182 103.72 65.7497 104.369L66.684 106.393C66.8685 106.806 67.0348 107.237 67.2011 107.669C67.052 107.364 66.9125 107.049 66.757 106.75C65.3753 104.14 63.7169 101.798 61.8837 99.8429C60.0504 97.8884 58.0627 96.3083 56.0385 95.0061C51.9762 92.4209 47.8023 90.903 43.7443 89.6276C39.6777 88.3628 35.6915 87.3524 31.8116 86.1445C27.9316 84.942 24.1535 83.5561 20.5117 81.7078C20.0537 81.4868 19.6042 81.2358 19.1504 81.0009C18.7053 80.7456 18.244 80.5053 17.8106 80.2457C16.9246 79.7469 16.0686 79.1837 15.2168 78.612C13.5305 77.4374 11.9065 76.1255 10.4304 74.5797C8.95332 73.0361 7.60601 71.2886 6.47752 69.2655C5.91113 68.2561 5.40804 67.1748 4.96072 66.0292C4.50374 64.8889 4.1326 63.666 3.82473 62.3884C2.58254 57.2695 2.54392 51.1519 3.59625 45.1437C2.91937 46.3462 2.37659 47.7149 1.88636 49.1341C1.41115 50.563 1.00567 52.0669 0.703166 53.6363C0.387796 55.2024 0.188274 56.835 0.0724138 58.5053C-0.0327062 60.1765 -0.0208986 61.8832 0.0917314 63.5984C0.227961 65.3051 0.463952 67.0193 0.824382 68.6852C1.18803 70.3468 1.6568 71.973 2.23178 73.5027C3.37742 76.5717 4.88349 79.2996 6.56871 81.6317C9.94343 86.3129 13.9682 89.5225 17.9544 91.95C21.9749 94.4075 26.1423 96.0927 30.2711 97.3575C34.4043 98.6243 38.5084 99.4535 42.501 100.288C46.4915 101.132 50.3811 101.971 54.0476 103.441C55.8765 104.184 57.6454 105.098 59.3328 106.263C61.0116 107.443 62.6163 108.871 64.0945 110.639C65.5738 112.401 66.9393 114.477 68.174 116.809C69.4183 119.133 70.5093 121.713 71.5734 124.404C71.5165 123.738 71.4425 123.073 71.3632 122.409C71.3943 122.555 71.4243 122.698 71.4564 122.843ZM72.5109 110.445C73.2489 109.321 73.9837 108.158 74.711 106.914V96.4199C73.4699 98.782 72.247 100.919 71.0402 102.879C71.6656 105.243 72.1558 107.776 72.5109 110.445ZM73.8357 7.62939e-06C73.5804 3.0497 73.0237 5.27771 72.1666 6.68188C71.3084 8.08712 70.2958 8.78973 69.1287 8.78973C68.2158 8.78973 66.0822 7.71382 62.7257 5.5609C56.9235 1.85364 51.4141 7.62939e-06 46.1965 7.62939e-06C39.1166 7.62939e-06 32.4305 2.87056 26.1369 8.61059C19.8434 14.3517 14.8435 22.4227 11.1405 32.8279C10.7501 33.9253 10.3907 35.0334 10.0421 36.1436C10.8455 38.6849 11.929 41.1263 13.302 43.4455C14.5421 45.5577 16.0031 47.6194 17.7731 49.753L18.436 50.4996C19.0614 51.2108 19.6514 51.8813 20.2789 52.4959C20.4634 52.6815 20.6307 52.8553 20.7981 53.029C21.063 53.3037 21.3269 53.5793 21.6058 53.84L23.0186 55.1798C23.3511 55.507 23.6718 55.788 23.9926 56.0702L24.9248 56.8961C25.0696 57.0259 25.2176 57.1514 25.3635 57.2802C25.6413 48.0217 26.7623 39.5087 28.7371 31.7509C30.5243 24.6958 33.353 18.9858 37.2211 14.6199C41.0882 10.2561 45.3394 8.07207 49.9734 8.07207C55.5193 8.07207 60.4816 11.0027 64.8604 16.8618C69.2392 22.723 72.2309 31.1545 73.8368 42.1551H75.9715V0L73.8357 7.62939e-06ZM63.6096 112.623C63.2127 113.011 62.8158 113.391 62.4232 113.73C58.5368 117.08 54.2589 118.754 49.5883 118.754C43.8966 118.754 39.2625 116.467 35.6872 111.893C33.1449 108.64 31.0906 104.262 29.5073 98.8034C24.8196 97.3445 20.7594 95.5521 17.1133 93.323C13.3052 91.0038 10.1279 88.3682 7.46759 85.3335C8.26032 89.3025 9.29655 93.1792 10.5913 96.9584C13.9296 106.705 18.673 114.18 24.8218 119.382C30.9694 124.584 38.0031 127.185 45.9207 127.185C51.9408 127.185 57.2045 125.584 61.7109 122.387C63.4541 121.149 65.1715 119.611 66.8631 117.786C66.8256 117.715 66.7913 117.64 66.7537 117.569C65.7765 115.721 64.7199 114.071 63.6096 112.623ZM156.304 122.843C156.328 121.961 156.346 121.074 156.357 120.182L156.369 118.843C156.361 118.397 156.341 117.953 156.327 117.507L156.211 114.818C156.136 113.926 156.045 113.035 155.96 112.135C155.562 108.561 154.896 104.976 153.855 101.552C153.592 100.701 153.286 99.8783 152.998 99.0351C152.924 98.827 152.855 98.6125 152.775 98.4076L152.526 97.8047L152.023 96.5958C151.704 95.7666 151.307 95.0286 150.926 94.2616C150.734 93.8818 150.545 93.4946 150.347 93.1202L149.722 92.0411L149.093 90.9598C148.882 90.5994 148.649 90.2818 148.424 89.9429C147.97 89.2821 147.527 88.5838 147.042 87.982L146.325 87.0476C146.087 86.7344 145.847 86.4212 145.597 86.1401C145.102 85.562 144.603 84.9795 144.097 84.4249C142.066 82.2183 139.93 80.3583 137.784 78.6516C135.635 76.9557 133.462 75.4228 131.306 73.9961C126.989 71.1266 122.726 68.5317 118.61 65.7105C116.555 64.2946 114.523 62.8529 112.553 61.2856C111.551 60.539 110.598 59.6895 109.616 58.8989C109.131 58.4913 108.66 58.0557 108.181 57.6352C107.705 57.2094 107.219 56.8028 106.757 56.3469L105.353 55.0157C104.883 54.5759 104.453 54.1007 103.999 53.6448C103.083 52.748 102.25 51.7461 101.381 50.7796C99.7119 48.7672 98.1436 46.6154 96.7641 44.2651C93.9933 39.5881 92.085 33.966 91.6806 27.6468L91.613 26.4593C91.6012 26.0613 91.6023 25.6633 91.5958 25.2611L91.5894 24.6571L91.6076 24.0543C91.6248 23.652 91.6205 23.2433 91.6452 22.8378C91.7181 21.2095 91.908 19.58 92.1472 17.9399C92.4004 16.3061 92.7265 14.6703 93.1395 13.0644C93.5492 11.4543 94.0244 9.86243 94.6016 8.31559C93.6844 9.45158 92.8852 10.8 92.1365 12.217C91.3996 13.648 90.7323 15.182 90.1627 16.8146C89.5867 18.443 89.1029 20.1657 88.721 21.9625C88.6202 22.4098 88.5462 22.8679 88.4625 23.3259L88.3413 24.0146L88.2458 24.7129C88.1847 25.1806 88.1171 25.6483 88.0634 26.1214L87.938 27.5502C87.6408 31.3819 87.9111 35.3659 88.6288 39.1429L88.7586 39.8563L88.9195 40.5492C89.0257 41.0126 89.1351 41.4761 89.2499 41.9373C89.3539 42.4072 89.4977 42.8427 89.6285 43.2911L90.0319 44.6309C90.1585 45.0879 90.329 45.4965 90.4781 45.931L90.9437 47.2182C91.0928 47.657 91.2741 48.0528 91.4468 48.4626L91.9745 49.6833C93.4205 52.8907 95.1283 55.7495 96.9433 58.3776C97.8787 59.623 98.7969 60.9328 99.787 62.0548C100.276 62.6276 100.76 63.238 101.254 63.7786L102.747 65.3855C103.241 65.9315 103.751 66.4346 104.263 66.9345C104.776 67.4333 105.284 67.9493 105.802 68.432C106.843 69.3803 107.885 70.3436 108.95 71.2146C109.481 71.6566 110.011 72.1103 110.548 72.5265L112.162 73.7773C112.698 74.2042 113.246 74.5689 113.788 74.968C114.332 75.3563 114.875 75.7564 115.421 76.1211C119.789 79.1236 124.223 81.608 128.534 84.0484C130.695 85.2702 132.812 86.4888 134.877 87.7889C136.939 89.0891 138.951 90.4578 140.85 92.0218C141.323 92.4144 141.778 92.8382 142.252 93.234C142.491 93.4281 142.714 93.648 142.938 93.8669L143.612 94.5212C144.076 94.9406 144.484 95.4384 144.919 95.9072C145.13 96.1485 145.355 96.3738 145.561 96.6226L146.176 97.3821L146.796 98.1437C146.993 98.4108 147.181 98.6908 147.375 98.9643C147.76 99.5157 148.161 100.055 148.512 100.657L149.061 101.541L149.337 101.985C149.426 102.136 149.506 102.299 149.59 102.456C149.922 103.091 150.266 103.72 150.598 104.369L151.532 106.393C151.717 106.806 151.883 107.237 152.049 107.669C151.9 107.364 151.761 107.049 151.605 106.75C150.223 104.14 148.565 101.798 146.732 99.8429C144.898 97.8884 142.911 96.3083 140.887 95.0061C136.824 92.4209 132.65 90.903 128.592 89.6276C124.526 88.3628 120.54 87.3524 116.66 86.1445C112.78 84.942 109.002 83.5561 105.36 81.7078C104.902 81.4868 104.452 81.2358 103.998 81.0009C103.553 80.7456 103.092 80.5053 102.659 80.2457C101.773 79.7469 100.917 79.1837 100.065 78.612C98.3786 77.4374 96.7545 76.1255 95.2784 74.5797C93.8013 73.0361 92.454 71.2886 91.3255 69.2655C90.7591 68.2561 90.2561 67.1748 89.8087 66.0292C89.3518 64.8889 88.9806 63.666 88.6727 62.3884C87.4305 57.2695 87.3919 51.1519 88.4443 45.1437C87.7674 46.3462 87.2246 47.7149 86.7344 49.1341C86.2592 50.563 85.8537 52.0669 85.5512 53.6363C85.2358 55.2024 85.0363 56.835 84.9204 58.5053C84.8153 60.1765 84.8271 61.8832 84.9398 63.5984C85.076 65.3051 85.312 67.0193 85.6724 68.6852C86.036 70.3468 86.5048 71.973 87.0798 73.5027C88.2254 76.5717 89.7315 79.2996 91.4167 81.6317C94.7914 86.3129 98.8162 89.5225 102.802 91.95C106.823 94.4075 110.99 96.0927 115.119 97.3575C119.252 98.6243 123.356 99.4535 127.349 100.288C131.339 101.132 135.229 101.971 138.896 103.441C140.725 104.184 142.493 105.098 144.181 106.263C145.86 107.443 147.464 108.871 148.943 110.639C150.422 112.401 151.787 114.477 153.022 116.809C154.266 119.133 155.357 121.713 156.421 124.404C156.365 123.738 156.291 123.073 156.211 122.409C156.242 122.555 156.272 122.698 156.304 122.843ZM143.254 107.58C143.18 107.53 143.102 107.484 143.028 107.433C143.012 107.469 142.995 107.507 142.979 107.542C139.769 114.358 135.116 117.767 129.023 117.767C127.162 117.767 125.739 117.318 124.754 116.422C124.061 115.824 123.568 114.957 123.277 113.82C122.984 112.684 122.839 109.604 122.839 104.582V100.977C120.148 100.391 117.409 99.7431 114.647 98.8957C111.101 97.809 107.917 96.5314 104.996 95.0243V103.594C104.996 109.873 104.832 113.64 104.504 114.895C103.957 116.81 103.108 118.319 101.958 119.425C100.809 120.532 99.1573 121.085 97.0055 121.085H94.5425V124.403H127.765C132.545 124.403 136.048 124.045 138.273 123.328C143.309 121.773 147.568 119.575 151.054 116.735C151.073 116.719 151.091 116.701 151.11 116.685C150.048 114.794 148.911 113.104 147.711 111.674C146.394 110.102 144.937 108.763 143.254 107.58ZM164.188 30.6761C160.775 20.8694 155.767 13.545 149.163 8.70177C143.763 4.7553 136.63 2.78152 127.763 2.78152H94.5404V6.10046H97.0033C99.0822 6.10046 100.733 6.68294 101.956 7.84897C103.178 9.015 103.99 10.3752 104.392 11.9295C104.793 13.4849 104.995 17.3713 104.995 23.5898V52.3607C105.039 52.4047 105.081 52.453 105.126 52.497C105.31 52.6826 105.478 52.8563 105.645 53.0301C105.91 53.3047 106.174 53.5804 106.453 53.8411L107.866 55.1809C108.198 55.508 108.519 55.7891 108.84 56.0712L109.772 56.8972C110.064 57.1579 110.354 57.4185 110.651 57.6685C110.995 57.9442 111.359 58.2488 111.724 58.5534C112.315 59.0469 112.906 59.5425 113.515 59.9973C115.595 61.6514 117.717 63.1424 119.524 64.3868C120.621 65.1398 121.724 65.8682 122.838 66.5966V9.68754C128.931 9.62854 133.292 10.5253 135.919 12.3779C139.64 15.0103 142.687 19.9726 145.059 27.267C148.051 36.5952 149.548 49.0621 149.548 64.6689C149.548 73.0671 149.135 80.5063 148.312 86.994L148.319 87.0036C148.694 87.467 149.051 87.998 149.396 88.5108L149.967 89.3529C150.143 89.6103 150.318 89.8688 150.481 90.1488L151.738 92.3167C151.905 92.631 152.041 92.8992 152.174 93.1663L152.591 93.9966C152.909 94.6273 153.239 95.2806 153.523 96.0176L154.261 97.794C154.333 97.9785 154.389 98.1372 154.443 98.296L154.804 99.3344C155.007 99.9115 155.208 100.488 155.391 101.075C156.226 103.821 156.859 106.837 157.304 110.042C158.344 108.619 159.336 107.088 160.273 105.435C162.936 100.742 165.107 94.7925 166.786 87.5861C168.464 80.3808 169.304 72.5039 169.304 63.9524C169.306 51.5744 167.6 40.4827 164.188 30.6761Z" fill="black"/>
</svg>
